<svg xmlns="http://www.w3.org/2000/svg" viewBox="0 0 1024 1024" id="volume-off"><path d="M672.52 568.35 728.87 512l-56.35-56.35 49.5-49.5 56.35 56.35 56.35-56.35 49.5 49.5L827.87 512l56.35 56.35-49.5 49.5-56.35-56.35-56.35 56.35zM536.33 814.5 323.71 662H201.27c-28.53 0-51.74-23.21-51.74-51.74V413.74c0-28.53 23.21-51.74 51.74-51.74h122.44l212.62-152.5c9.9-7.1 22.79-8.05 33.63-2.49 10.84 5.57 17.57 16.59 17.57 28.78v552.42c0 12.19-6.73 23.21-17.57 28.78-4.69 2.4-9.75 3.59-14.8 3.59-6.62 0-13.21-2.05-18.83-6.08z"></path></svg>